<svg width="20" height="20" viewBox="0 0 20 20" fill="none" xmlns="http://www.w3.org/2000/svg">
<g clip-path="url(#clip0_107_35)">
<path d="M14.5834 5.41669H14.5917M5.83335 1.66669H14.1667C16.4679 1.66669 18.3334 3.53217 18.3334 5.83335V14.1667C18.3334 16.4679 16.4679 18.3334 14.1667 18.3334H5.83335C3.53217 18.3334 1.66669 16.4679 1.66669 14.1667V5.83335C1.66669 3.53217 3.53217 1.66669 5.83335 1.66669ZM13.3334 9.47502C13.4362 10.1686 13.3177 10.8769 12.9948 11.4992C12.6719 12.1215 12.161 12.6262 11.5347 12.9414C10.9084 13.2566 10.1987 13.3664 9.50651 13.255C8.81429 13.1436 8.17482 12.8168 7.67905 12.321C7.18328 11.8252 6.85646 11.1857 6.74508 10.4935C6.63369 9.80131 6.74341 9.0916 7.05863 8.46533C7.37384 7.83907 7.87851 7.32814 8.50084 7.00522C9.12317 6.68231 9.83148 6.56384 10.525 6.66669C11.2325 6.77159 11.8874 7.10124 12.3931 7.60694C12.8988 8.11265 13.2284 8.76758 13.3334 9.47502Z" stroke="white" stroke-width="2" stroke-linecap="round" stroke-linejoin="round"/>
</g>
<defs>
<clipPath id="clip0_107_35">
<rect width="20" height="20" fill="white"/>
</clipPath>
</defs>
</svg>
