<svg width="16" height="16" viewBox="0 0 16 16" fill="none" xmlns="http://www.w3.org/2000/svg">
<path d="M10.6666 5.33331C11.7275 5.33331 12.7449 5.75474 13.4951 6.50489C14.2452 7.25503 14.6666 8.27245 14.6666 9.33331V14H12V9.33331C12 8.97969 11.8595 8.64055 11.6095 8.3905C11.3594 8.14046 11.0203 7.99998 10.6666 7.99998C10.313 7.99998 9.97389 8.14046 9.72384 8.3905C9.47379 8.64055 9.33331 8.97969 9.33331 9.33331V14H6.66665V9.33331C6.66665 8.27245 7.08807 7.25503 7.83822 6.50489C8.58836 5.75474 9.60578 5.33331 10.6666 5.33331Z" stroke="white" stroke-width="1.6" stroke-linecap="round" stroke-linejoin="round"/>
<path d="M3.99998 5.99998H1.33331V14H3.99998V5.99998Z" stroke="white" stroke-width="1.6" stroke-linecap="round" stroke-linejoin="round"/>
<path d="M2.66665 3.99998C3.40303 3.99998 3.99998 3.40303 3.99998 2.66665C3.99998 1.93027 3.40303 1.33331 2.66665 1.33331C1.93027 1.33331 1.33331 1.93027 1.33331 2.66665C1.33331 3.40303 1.93027 3.99998 2.66665 3.99998Z" stroke="white" stroke-width="1.6" stroke-linecap="round" stroke-linejoin="round"/>
</svg>
