<?xml version="1.0" encoding="UTF-8" standalone="no"?>
<!-- Created with Inkscape (http://www.inkscape.org/) -->

<svg
   width="300"
   height="200"
   viewBox="0 0 79.375 52.916667"
   version="1.1"
   id="svg1"
   xml:space="preserve"
   sodipodi:docname="init-3.svg"
   inkscape:version="1.3.2 (091e20e, 2023-11-25, custom)"
   xmlns:inkscape="http://www.inkscape.org/namespaces/inkscape"
   xmlns:sodipodi="http://sodipodi.sourceforge.net/DTD/sodipodi-0.dtd"
   xmlns="http://www.w3.org/2000/svg"
   xmlns:svg="http://www.w3.org/2000/svg"><defs
     id="defs1" /><sodipodi:namedview
     inkscape:zoom="2.8284271"
     inkscape:cx="57.629202"
     inkscape:cy="117.5565"
     inkscape:window-width="2560"
     inkscape:window-height="1506"
     inkscape:window-x="-11"
     inkscape:window-y="-11"
     inkscape:window-maximized="1"
     inkscape:current-layer="svg1"
     id="namedview1"
     pagecolor="#ffffff"
     bordercolor="#000000"
     borderopacity="0.25"
     inkscape:showpageshadow="2"
     inkscape:pageopacity="0.0"
     inkscape:pagecheckerboard="0"
     inkscape:deskcolor="#d1d1d1" /><g
     id="layer1"><path
       d="m 44.60616,10.229728 -14.614886,32.40295 5.301888,0.0687 14.535599,-32.48609 z"
       id="slash" /><path
       d="m 28.73516,10.328478 -7.026753,3.79148 -6.716184,3.623904 -6.866191,3.704845 -3.171778,1.711421 -0.01014,2.801457 0.0068,2.729386 3.100259,1.816729 6.806948,3.98882 7.396081,4.334048 6.527049,3.824802 -0.07236,-4.722451 -4.501769,-2.887418 -7.26687,-4.660943 -4.322962,-2.772733 -2.412595,-1.547429 2.638611,-1.598632 5.049944,-3.059565 6.146568,-3.723967 4.622525,-2.800608 z"
       id="letterC" /><path
       d="m 50.63984,10.328478 6.221074,3.356754 5.732668,3.093221 6.406774,3.456953 5.42039,2.924722 0.01014,2.801457 -0.0068,2.729386 -5.032895,2.949239 -6.030269,3.533692 -5.358811,3.140223 -7.408362,4.341245 0.07236,-4.722451 4.990974,-3.201192 5.337566,-3.423495 6.232386,-3.99743 1.94327,-1.246406 -2.178299,-1.319747 -6.204489,-3.759059 -5.981634,-3.624039 -4.093226,-2.479927 z"
       id="letterD" /></g></svg>
